<svg viewBox="0 0 24 24" fill="none" xmlns="http://www.w3.org/2000/svg">
<path d="M3.73875 9.43337L3.73859 9.43338C3.45224 9.44929 3.21073 9.52429 3.0371 9.65065C2.67338 9.91942 2.46039 10.4291 2.50599 11.141C2.55129 11.8479 2.85405 12.6845 3.42594 13.4635C3.99703 14.2415 4.70448 14.7761 5.3651 15.0264C6.03081 15.2786 6.58241 15.2244 6.94787 14.955L3.73875 9.43337ZM3.73875 9.43337C4.56675 9.38709 5.72354 9.96148 6.59136 11.1413L3.73875 9.43337ZM20.2208 9.43306L20.2206 9.43305C19.3881 9.37784 18.2442 9.95709 17.3732 11.1413C16.8167 11.8995 16.5746 12.7452 16.5852 13.4825C16.5959 14.2286 16.8608 14.8117 17.2508 15.1233L20.2208 9.43306ZM20.2208 9.43306C20.4878 9.45068 20.7313 9.5382 20.9271 9.68172C21.3061 9.96027 21.5307 10.4841 21.4967 11.2007C21.4629 11.9122 21.1706 12.7505 20.6011 13.5262C20.0299 14.3045 19.3153 14.8489 18.6641 15.1142M20.2208 9.43306L18.6641 15.1142M18.6641 15.1142C17.9916 15.3882 17.506 15.3269 17.2509 15.1234L18.6641 15.1142ZM8.14469 2.50473L8.14468 2.50475L8.14963 2.5054C8.56176 2.5589 9.02732 2.84764 9.45029 3.39703C9.86818 3.93982 10.2102 4.69658 10.3812 5.58227L10.3813 5.58282C10.5776 6.59362 10.4976 7.53811 10.2348 8.23922C9.96844 8.95001 9.55254 9.33089 9.11979 9.41458C8.68657 9.49834 8.15822 9.30019 7.64541 8.74073C7.13952 8.18882 6.71213 7.34303 6.51581 6.33216C6.31994 5.32359 6.407 4.389 6.67576 3.69697C6.9475 2.99728 7.36897 2.61747 7.80707 2.5321C7.96785 2.50218 8.06304 2.4933 8.14469 2.50473ZM15.8462 2.5054L15.8462 2.50542L15.8511 2.50473C15.9328 2.4933 16.028 2.50218 16.1887 2.5321C16.6268 2.61747 17.0483 2.99728 17.32 3.69697C17.5888 4.389 17.6759 5.32359 17.48 6.33216C17.2837 7.34303 16.8563 8.18882 16.3504 8.74073C15.8376 9.30019 15.3092 9.49834 14.876 9.41458C14.4433 9.3309 14.0274 8.95001 13.761 8.23922C13.4982 7.53811 13.4182 6.59362 13.6145 5.58282L13.6146 5.58227C13.7856 4.69658 14.1276 3.93982 14.5455 3.39703C14.9685 2.84764 15.434 2.5589 15.8462 2.5054ZM10.6011 21.1852L10.6008 21.1854C10.2387 21.3836 9.85936 21.5 9.43363 21.5C8.06927 21.5 6.99403 20.4491 6.99403 19.2114C6.99403 18.8945 7.11226 18.5972 7.33202 18.287C7.55685 17.9697 7.86504 17.6698 8.21164 17.3455C8.24412 17.3151 8.27705 17.2844 8.31031 17.2534C8.61601 16.9683 8.94913 16.6577 9.20785 16.3313C9.49856 15.9645 9.746 15.5174 9.746 14.9814C9.746 13.5574 10.7949 12.4735 11.9979 12.4735C13.2008 12.4735 14.2498 13.5574 14.2498 14.9814C14.2498 15.4699 14.5146 15.8998 14.7884 16.2443C15.028 16.5457 15.3345 16.8527 15.6253 17.1439C15.6744 17.1931 15.7231 17.2418 15.7709 17.29C16.1156 17.6373 16.4296 17.9683 16.659 18.3038C16.8876 18.6383 17.0018 18.9345 17.0018 19.2114C17.0018 20.4503 15.937 21.5 14.5622 21.5C14.1284 21.5 13.7249 21.3813 13.3621 21.1845L13.362 21.1844C13.1703 21.0806 12.9334 21.0209 12.7123 20.985C12.4821 20.9477 12.2288 20.9301 11.9808 20.9301C11.7328 20.9301 11.4797 20.9477 11.2499 20.9851C11.0293 21.0209 10.7924 21.0807 10.6011 21.1852ZM6.59143 11.1414C7.16185 11.9186 7.4569 12.7532 7.49535 13.4591C7.5341 14.1705 7.3153 14.6841 6.94788 14.955L6.59143 11.1414ZM10.8408 21.624C11.3138 21.3655 12.6468 21.3655 13.1237 21.624H10.8408Z" stroke="#B89068"/>
</svg>
