<svg viewBox="0 0 24 24" fill="none" xmlns="http://www.w3.org/2000/svg">
<path fill-rule="evenodd" clip-rule="evenodd" d="M8.214 2.00956C8.04594 1.98603 7.88172 2.00956 7.71366 2.0409C6.37677 2.29934 5.60282 4.25374 6.02498 6.42749C6.44713 8.60123 7.87782 10.164 9.21471 9.90548C10.5515 9.64698 11.2943 7.66124 10.8721 5.48749C10.5047 3.58405 9.39058 2.1623 8.214 2.00956ZM15.7818 2.00956C14.6052 2.1623 13.4911 3.58405 13.1237 5.48749C12.7015 7.66124 13.4443 9.64698 14.7811 9.90548C16.118 10.164 17.5487 8.60123 17.9708 6.42749C18.393 4.25374 17.619 2.29934 16.2821 2.0409C16.1141 2.00956 15.9499 1.98603 15.7818 2.00956ZM3.71084 8.93415C3.35905 8.9537 3.01507 9.04773 2.7414 9.24746C1.64689 10.0543 1.78373 12.0713 3.02288 13.7594C4.26202 15.4475 6.15005 16.1642 7.24456 15.3574C8.33906 14.5506 8.23357 12.5335 6.99442 10.8455C6.06407 9.58038 4.76236 8.87537 3.71084 8.93415ZM20.2537 8.93415C19.1905 8.86364 17.9005 9.58038 16.9701 10.8455C15.731 12.5335 15.86 14.6524 16.9389 15.5141C17.8614 16.2504 19.7651 15.5102 21.0042 13.8221C22.2434 12.134 22.3371 10.0974 21.2231 9.2788C20.9456 9.07516 20.6094 8.95761 20.2537 8.93415ZM11.9979 11.9735C10.4773 11.9735 9.246 13.3247 9.246 14.9814C9.246 16.4815 6.49403 17.4019 6.49403 19.2114C6.49403 20.7506 7.81922 22 9.43363 22C9.95743 22 10.4187 21.8551 10.8408 21.624C11.3138 21.3655 12.6468 21.3655 13.1237 21.624C13.5497 21.8551 14.0345 22 14.5622 22C16.1884 22 17.5018 20.7506 17.5018 19.2114C17.5018 17.5429 14.7498 16.2269 14.7498 14.9814C14.7498 13.3247 13.5185 11.9735 11.9979 11.9735Z" fill="#B89068"/>
</svg>
