<svg viewBox="0 0 24 24" fill="none" xmlns="http://www.w3.org/2000/svg">
<path fill-rule="evenodd" clip-rule="evenodd" d="M6.51613 6.50678C6.51613 3.46547 8.97134 1 12 1C15.0287 1 17.4839 3.46547 17.4839 6.50678C17.4839 9.5481 15.0287 12.0136 12 12.0136C8.97134 12.0136 6.51613 9.5481 6.51613 6.50678ZM12 2.94357C10.0403 2.94357 8.45161 4.53888 8.45161 6.50678C8.45161 8.47469 10.0403 10.07 12 10.07C13.9597 10.07 15.5484 8.47469 15.5484 6.50678C15.5484 4.53888 13.9597 2.94357 12 2.94357Z" fill="black"/>
<path fill-rule="evenodd" clip-rule="evenodd" d="M6.83871 15.9007C5.2353 15.9007 3.93548 17.206 3.93548 18.8161V20.3557C3.93548 20.3792 3.9524 20.3992 3.97544 20.403C9.28997 21.2743 14.71 21.2743 20.0246 20.403C20.0476 20.3992 20.0645 20.3792 20.0645 20.3557V18.8161C20.0645 17.206 18.7647 15.9007 17.1613 15.9007H16.7215C16.6875 15.9007 16.6537 15.9061 16.6213 15.9167L15.5045 16.2829C13.2273 17.0296 10.7727 17.0296 8.49546 16.2829L7.37867 15.9167C7.34634 15.9061 7.31255 15.9007 7.27854 15.9007H6.83871ZM2 18.8161C2 16.1326 4.16636 13.9571 6.83871 13.9571H7.27854C7.51659 13.9571 7.75315 13.9949 7.97945 14.0691L9.09624 14.4353C10.9831 15.054 13.0169 15.054 14.9038 14.4353L16.0206 14.0691C16.2468 13.9949 16.4834 13.9571 16.7215 13.9571H17.1613C19.8336 13.9571 22 16.1326 22 18.8161V20.3557C22 21.3317 21.2956 22.1639 20.3364 22.3211C14.8154 23.2263 9.18464 23.2263 3.66358 22.3211C2.70437 22.1639 2 21.3317 2 20.3557V18.8161Z" fill="black"/>
</svg>
