<svg viewBox="0 0 24 24" fill="none" xmlns="http://www.w3.org/2000/svg">
<path d="M20.9983 12H18.3333L17.9983 6.934C17.9815 6.68039 17.8688 6.44268 17.683 6.26919C17.4973 6.0957 17.2524 5.99945 16.9983 6H14.9983C14.9983 4.67392 14.4715 3.40215 13.5338 2.46447C12.5961 1.52678 11.3244 1 9.99827 1C8.67219 1 7.40042 1.52678 6.46274 2.46447C5.52506 3.40215 4.99827 4.67392 4.99827 6H2.99827C2.74411 5.99945 2.49926 6.0957 2.31352 6.26919C2.12777 6.44268 2.01505 6.68039 1.99827 6.934L0.998274 21.934C0.989228 22.0708 1.00839 22.2079 1.05458 22.337C1.10077 22.466 1.17299 22.5842 1.26677 22.6842C1.36055 22.7841 1.47387 22.8638 1.59971 22.9181C1.72555 22.9724 1.86121 23.0003 1.99827 23H21.9983C22.1389 23 22.2779 22.9704 22.4063 22.913C22.5347 22.8556 22.6495 22.7719 22.7433 22.6671C22.8371 22.5624 22.9078 22.439 22.9507 22.3051C22.9936 22.1712 23.0077 22.0298 22.9923 21.89L21.9923 12.89C21.9652 12.6453 21.8488 12.4192 21.6654 12.255C21.482 12.0908 21.2445 12 20.9983 12ZM9.99827 3C10.7939 3 11.557 3.31607 12.1196 3.87868C12.6822 4.44129 12.9983 5.20435 12.9983 6H6.99827C6.99827 5.20435 7.31434 4.44129 7.87695 3.87868C8.43956 3.31607 9.20263 3 9.99827 3ZM3.06727 21L3.93327 8H4.99827V10C4.99827 10.2652 5.10363 10.5196 5.29117 10.7071C5.4787 10.8946 5.73306 11 5.99827 11C6.26349 11 6.51784 10.8946 6.70538 10.7071C6.89292 10.5196 6.99827 10.2652 6.99827 10V8H12.9983V10C12.9983 10.2652 13.1036 10.5196 13.2912 10.7071C13.4787 10.8946 13.7331 11 13.9983 11C14.2635 11 14.5178 10.8946 14.7054 10.7071C14.8929 10.5196 14.9983 10.2652 14.9983 10V8H16.0623L16.9293 21H3.06727ZM18.9333 21L18.4673 14H20.1033L20.8813 21H18.9333Z" fill="black"/>
</svg>
