<svg viewBox="0 0 24 24" fill="none" xmlns="http://www.w3.org/2000/svg">
<g id="Icons/24px/TrashCan">
<path id="Vector (Stroke)" fill-rule="evenodd" clip-rule="evenodd" d="M7.25 6C7.25 3.37665 9.37665 1.25 12 1.25C14.6234 1.25 16.75 3.37665 16.75 6V6.25H20C20.4142 6.25 20.75 6.58579 20.75 7C20.75 7.41421 20.4142 7.75 20 7.75H4C3.58579 7.75 3.25 7.41421 3.25 7C3.25 6.58579 3.58579 6.25 4 6.25H7.25V6ZM8.75 6.25H15.25V6C15.25 4.20507 13.7949 2.75 12 2.75C10.2051 2.75 8.75 4.20507 8.75 6V6.25ZM4.92906 8.25336C5.34142 8.21418 5.70746 8.5167 5.74664 8.92906C5.83766 9.88703 6.00352 11.08 6.22564 12.6761L6.48798 14.5611C6.77851 16.6488 6.91156 17.5736 7.17907 18.3017C7.69496 19.7058 8.55279 20.6566 9.47524 21.0458C9.92544 21.2358 10.4708 21.25 12 21.25C13.5292 21.25 14.0746 21.2358 14.5248 21.0458C15.4472 20.6566 16.305 19.7058 16.8209 18.3017C17.0884 17.5736 17.2215 16.6488 17.512 14.5611L17.7744 12.6761C17.9965 11.08 18.1623 9.88702 18.2534 8.92906C18.2925 8.5167 18.6586 8.21418 19.0709 8.25336C19.4833 8.29254 19.7858 8.65858 19.7466 9.07094C19.6522 10.0652 19.4817 11.2903 19.2625 12.8651L18.981 14.8881C18.7118 16.8229 18.5592 17.9201 18.2289 18.819C17.6143 20.4918 16.5179 21.8328 15.1079 22.4278C14.3423 22.7509 13.4665 22.7506 12.1627 22.75C12.1092 22.75 12.055 22.75 12 22.75C11.945 22.75 11.8908 22.75 11.8373 22.75C10.5335 22.7506 9.65773 22.7509 8.89206 22.4278C7.48205 21.8328 6.3857 20.4918 5.77109 18.819C5.44085 17.9201 5.28819 16.8229 5.01903 14.8881L4.73748 12.8651C4.51833 11.2903 4.34783 10.0652 4.25336 9.07094C4.21418 8.65858 4.5167 8.29254 4.92906 8.25336Z" fill="#ABABAB"/>
</g>
</svg>
