<svg viewBox="0 0 127 32" fill="none" xmlns="http://www.w3.org/2000/svg">
<path d="M53.5 13.6382C53.5 13.8774 53.3188 14.3696 52.9565 15.1147C52.5942 15.853 52.1294 16.998 51.562 18.5498C51.0015 20.0947 50.5708 21.1816 50.27 21.8105C49.9692 22.4326 49.7163 22.8018 49.5112 22.918C49.313 23.0273 48.9985 23.082 48.5679 23.082C48.1372 23.082 47.8296 23.0239 47.645 22.9077C47.4673 22.7847 47.252 22.4873 46.999 22.0156C46.7461 21.5371 46.2881 20.3921 45.625 18.5806C44.9688 16.7622 44.4629 15.5488 44.1074 14.9404C43.752 14.3252 43.5742 13.8535 43.5742 13.5254C43.5742 13.1904 43.6699 12.9717 43.8613 12.8691C44.0596 12.7666 44.4014 12.7153 44.8867 12.7153H45.1123C45.8984 12.7153 46.4385 12.9409 46.7324 13.3921C46.8623 13.5835 46.9717 13.98 47.0605 14.5815C47.1494 15.1763 47.3101 15.8701 47.5425 16.6631C48.1919 18.9189 48.6089 20.0469 48.7935 20.0469C48.937 20.0469 49.3643 18.9258 50.0752 16.6836C50.2939 16 50.4819 15.2617 50.6392 14.4688C50.7964 13.6689 50.8818 13.2588 50.8955 13.2383C51.0664 12.8965 51.5962 12.7256 52.4849 12.7256C52.8882 12.7256 53.1582 12.7666 53.2949 12.8486C53.4316 12.9307 53.5 13.1323 53.5 13.4536V13.6382ZM61.5083 16.2427V16.1812L61.498 16.1196V16.0068C61.4844 15.9248 61.4775 15.8667 61.4775 15.8325C61.4775 15.436 61.2998 15.084 60.9443 14.7764C60.5889 14.4619 60.2026 14.3047 59.7856 14.3047H59.478C58.9038 14.3047 58.4219 14.5269 58.0322 14.9712C57.6426 15.4155 57.4478 15.9111 57.4478 16.458V16.6221C57.4478 16.8271 57.5811 16.9297 57.8477 16.9297L58.104 16.9604H58.75L58.8013 16.9502L60.6777 16.8477L60.8931 16.8271C61.3032 16.8271 61.5083 16.6323 61.5083 16.2427ZM63.313 18.1089C62.7456 18.3345 61.6382 18.4473 59.9907 18.4473C58.3501 18.4473 57.5298 18.6934 57.5298 19.1855C57.5298 19.835 57.7793 20.3442 58.2783 20.7134C58.7773 21.0825 59.4883 21.2671 60.4111 21.2671C60.7666 21.2671 61.2178 21.1782 61.7646 21.0005C62.3115 20.8228 62.7388 20.7339 63.0464 20.7339C63.4224 20.7339 63.6104 21.0347 63.6104 21.6362C63.6104 22.019 63.1968 22.3848 62.3696 22.7334C61.5493 23.082 60.7529 23.2563 59.9805 23.2563H59.7446C58.9038 23.2563 58.1621 23.1299 57.5195 22.877C56.8838 22.6172 56.3779 22.2925 56.002 21.9028C55.626 21.5132 55.3149 20.9937 55.0688 20.3442C54.8296 19.6948 54.71 18.9736 54.71 18.1807V17.9346C54.71 16.3213 55.1167 15.0498 55.9302 14.1201C56.3608 13.6279 56.8975 13.252 57.54 12.9922C58.1826 12.7256 58.8594 12.5923 59.5703 12.5923H60.0522C60.5376 12.5923 61.0435 12.688 61.5698 12.8794C62.5884 13.2485 63.2959 13.9731 63.6924 15.0532C63.8906 15.5933 63.9897 16.1025 63.9897 16.5811V16.8066C63.9897 17.4971 63.7642 17.9312 63.313 18.1089ZM67.4658 21.7798C67.0898 21.144 66.9019 19.9785 66.9019 18.2832C66.9019 16.5879 66.8438 15.5215 66.7275 15.084C66.666 14.8447 66.4678 14.6123 66.1328 14.3867C65.7979 14.1611 65.6304 13.874 65.6304 13.5254C65.6304 13.1768 65.7363 12.9307 65.9482 12.7871C65.9961 12.7529 66.1328 12.6777 66.3584 12.5615C66.584 12.4385 66.7207 12.3428 66.7686 12.2744C66.8232 12.1992 66.9258 11.8711 67.0762 11.29C67.2334 10.7021 67.3906 10.2954 67.5479 10.0698C67.7119 9.8374 67.9443 9.72119 68.2451 9.72119H68.4194C68.8091 9.72119 69.0962 9.84424 69.2808 10.0903C69.3765 10.2202 69.4756 10.5415 69.5781 11.0542C69.6807 11.5669 69.8208 11.9258 69.9985 12.1309C70.1763 12.3359 70.5454 12.5137 71.106 12.6641C71.6733 12.8076 71.957 13.0435 71.957 13.3716C71.957 13.6997 71.8716 13.9287 71.7007 14.0586C71.5298 14.1885 71.1948 14.3081 70.6958 14.4175C70.1968 14.5269 69.8721 14.6978 69.7217 14.9302C69.5713 15.1558 69.4961 15.7881 69.4961 16.8271L69.4858 17.0425C69.479 17.186 69.4756 17.3535 69.4756 17.5449V18.1499C69.4756 19.4146 69.6021 20.228 69.855 20.5903C70.0122 20.8159 70.3506 20.9697 70.8701 21.0518C71.3965 21.127 71.6768 21.1714 71.7109 21.1851C71.9775 21.3218 72.1108 21.5439 72.1108 21.8516V22.0156C72.1108 22.2959 71.9229 22.5352 71.5469 22.7334C71.1777 22.9248 70.7197 23.0205 70.1729 23.0205H69.7524C68.7202 23.0205 67.958 22.6069 67.4658 21.7798ZM87.1328 18.2114V17.6577C87.1328 16.6392 86.9688 15.8735 86.6406 15.3608C86.2168 14.7046 85.6665 14.3765 84.9897 14.3765H84.7949C84.0908 14.3765 83.5645 14.6396 83.2158 15.166C82.9492 15.5693 82.8159 16.3486 82.8159 17.5039V18.6113L82.8262 18.7139L82.8569 19.4009C82.8638 19.4692 82.8672 19.5342 82.8672 19.5957C82.8672 20.1494 83.021 20.5938 83.3286 20.9287C83.6431 21.2637 84.0566 21.4312 84.5693 21.4312H84.8564C85.54 21.4312 86.0903 21.1406 86.5073 20.5596C86.9243 19.9717 87.1328 19.189 87.1328 18.2114ZM81.1958 27.2861C80.314 27.2861 79.873 26.9888 79.873 26.394V26.1787C79.873 26.0283 79.9346 25.7173 80.0576 25.2456C80.1807 24.7739 80.2559 24.1689 80.2832 23.4307C80.3174 22.6924 80.3345 21.7012 80.3345 20.457V17.1143L80.3242 16.376C80.3242 15.5078 80.249 14.8652 80.0986 14.4482C79.9482 14.0244 79.873 13.71 79.873 13.5049C79.873 13.1016 80.4028 12.8999 81.4624 12.8999C81.4829 12.8999 81.5 12.8999 81.5137 12.8999C81.6641 12.8999 81.8828 12.9512 82.1699 13.0537C82.457 13.1494 82.7441 13.1973 83.0312 13.1973C83.3252 13.1973 83.7319 13.105 84.2515 12.9204C84.771 12.7358 85.27 12.6436 85.7485 12.6436H85.9946C87.0884 12.6436 87.9941 13.0776 88.7119 13.9458C89.4229 14.814 89.7783 15.9761 89.7783 17.4321V17.6987C89.7783 18.396 89.6621 19.1138 89.4297 19.8521C89.2041 20.5903 88.8486 21.209 88.3633 21.708C87.8848 22.2002 87.3687 22.542 86.8149 22.7334C86.2681 22.918 85.6289 23.0103 84.8975 23.0103C84.166 23.0103 83.6431 23.1162 83.3286 23.3281C83.1782 23.4307 83.103 23.605 83.103 23.8511C83.103 24.0972 83.1475 24.4321 83.2363 24.856C83.332 25.2866 83.3799 25.666 83.3799 25.9941C83.3799 26.3223 83.2056 26.6196 82.8569 26.8862C82.5151 27.1528 82.1187 27.2861 81.6675 27.2861H81.1958ZM98.2378 16.2427V16.1812L98.2275 16.1196V16.0068C98.2139 15.9248 98.207 15.8667 98.207 15.8325C98.207 15.436 98.0293 15.084 97.6738 14.7764C97.3184 14.4619 96.9321 14.3047 96.5151 14.3047H96.2075C95.6333 14.3047 95.1514 14.5269 94.7617 14.9712C94.3721 15.4155 94.1772 15.9111 94.1772 16.458V16.6221C94.1772 16.8271 94.3105 16.9297 94.5771 16.9297L94.8335 16.9604H95.4795L95.5308 16.9502L97.4072 16.8477L97.6226 16.8271C98.0327 16.8271 98.2378 16.6323 98.2378 16.2427ZM100.042 18.1089C99.4751 18.3345 98.3677 18.4473 96.7202 18.4473C95.0796 18.4473 94.2593 18.6934 94.2593 19.1855C94.2593 19.835 94.5088 20.3442 95.0078 20.7134C95.5068 21.0825 96.2178 21.2671 97.1406 21.2671C97.4961 21.2671 97.9473 21.1782 98.4941 21.0005C99.041 20.8228 99.4683 20.7339 99.7759 20.7339C100.152 20.7339 100.34 21.0347 100.34 21.6362C100.34 22.019 99.9263 22.3848 99.0991 22.7334C98.2788 23.082 97.4824 23.2563 96.71 23.2563H96.4741C95.6333 23.2563 94.8916 23.1299 94.249 22.877C93.6133 22.6172 93.1074 22.2925 92.7314 21.9028C92.3555 21.5132 92.0444 20.9937 91.7983 20.3442C91.5591 19.6948 91.4395 18.9736 91.4395 18.1807V17.9346C91.4395 16.3213 91.8462 15.0498 92.6597 14.1201C93.0903 13.6279 93.627 13.252 94.2695 12.9922C94.9121 12.7256 95.5889 12.5923 96.2998 12.5923H96.7817C97.2671 12.5923 97.7729 12.688 98.2993 12.8794C99.3179 13.2485 100.025 13.9731 100.422 15.0532C100.62 15.5933 100.719 16.1025 100.719 16.5811V16.8066C100.719 17.4971 100.494 17.9312 100.042 18.1089ZM104.195 21.7798C103.819 21.144 103.631 19.9785 103.631 18.2832C103.631 16.5879 103.573 15.5215 103.457 15.084C103.396 14.8447 103.197 14.6123 102.862 14.3867C102.527 14.1611 102.36 13.874 102.36 13.5254C102.36 13.1768 102.466 12.9307 102.678 12.7871C102.726 12.7529 102.862 12.6777 103.088 12.5615C103.313 12.4385 103.45 12.3428 103.498 12.2744C103.553 12.1992 103.655 11.8711 103.806 11.29C103.963 10.7021 104.12 10.2954 104.277 10.0698C104.441 9.8374 104.674 9.72119 104.975 9.72119H105.149C105.539 9.72119 105.826 9.84424 106.01 10.0903C106.106 10.2202 106.205 10.5415 106.308 11.0542C106.41 11.5669 106.55 11.9258 106.728 12.1309C106.906 12.3359 107.275 12.5137 107.835 12.6641C108.403 12.8076 108.687 13.0435 108.687 13.3716C108.687 13.6997 108.601 13.9287 108.43 14.0586C108.259 14.1885 107.924 14.3081 107.425 14.4175C106.926 14.5269 106.602 14.6978 106.451 14.9302C106.301 15.1558 106.226 15.7881 106.226 16.8271L106.215 17.0425C106.208 17.186 106.205 17.3535 106.205 17.5449V18.1499C106.205 19.4146 106.332 20.228 106.584 20.5903C106.742 20.8159 107.08 20.9697 107.6 21.0518C108.126 21.127 108.406 21.1714 108.44 21.1851C108.707 21.3218 108.84 21.5439 108.84 21.8516V22.0156C108.84 22.2959 108.652 22.5352 108.276 22.7334C107.907 22.9248 107.449 23.0205 106.902 23.0205H106.482C105.45 23.0205 104.688 22.6069 104.195 21.7798Z" fill="#B89068"/>
<path fill-rule="evenodd" clip-rule="evenodd" d="M14.7675 4.01191C14.5574 3.98259 14.3522 4.01191 14.1421 4.051C12.471 4.37349 11.5035 6.81172 12.0312 9.52358C12.5589 12.2354 14.3473 14.185 16.0184 13.8626C17.6895 13.5401 18.6178 11.0627 18.0901 8.35088C17.6308 5.97618 16.2383 4.20247 14.7675 4.01191ZM24.2272 4.01191C22.7565 4.20247 21.3639 5.97618 20.9046 8.35088C20.3769 11.0627 21.3053 13.5401 22.9764 13.8626C24.6475 14.185 26.4358 12.2354 26.9635 9.52358C27.4912 6.81172 26.5238 4.37349 24.8527 4.051C24.6426 4.01191 24.4374 3.98259 24.2272 4.01191ZM9.13856 12.6508C8.6988 12.6752 8.26881 12.7925 7.92677 13.0417C6.55863 14.0482 6.72964 16.5646 8.27858 18.6706C9.82752 20.7766 12.1876 21.6708 13.5557 20.6642C14.9239 19.6576 14.7919 17.1412 13.243 15.0353C12.0801 13.457 10.453 12.5775 9.13856 12.6508ZM29.8171 12.6508C28.488 12.5628 26.8756 13.457 25.7127 15.0353C24.1637 17.1412 24.325 19.7847 25.6736 20.8596C26.8267 21.7783 29.2063 20.8548 30.7553 18.7488C32.3042 16.6428 32.4215 14.102 31.0289 13.0808C30.682 12.8267 30.2617 12.6801 29.8171 12.6508ZM19.4974 16.4425C17.5966 16.4425 16.0575 18.1282 16.0575 20.1951C16.0575 22.0665 12.6176 23.2148 12.6176 25.4722C12.6176 27.3925 14.274 28.9512 16.292 28.9512C16.9468 28.9512 17.5233 28.7705 18.051 28.4822C18.6423 28.1597 20.3085 28.1597 20.9046 28.4822C21.4372 28.7705 22.0431 28.9512 22.7027 28.9512C24.7354 28.9512 26.3772 27.3925 26.3772 25.4722C26.3772 23.3907 22.9373 21.7489 22.9373 20.1951C22.9373 18.1282 21.3981 16.4425 19.4974 16.4425Z" fill="#B89068"/>
</svg>
