<svg viewBox="0 0 100 100" fill="none" xmlns="http://www.w3.org/2000/svg">
<path d="M100 0H0V100H100V0Z" fill="#F7DDA4"/>
<path d="M30.418 63.2256C30.418 63.4307 30.2627 63.8525 29.9521 64.4912C29.6416 65.124 29.2432 66.1055 28.7568 67.4355C28.2764 68.7598 27.9072 69.6914 27.6494 70.2305C27.3916 70.7637 27.1748 71.0801 26.999 71.1797C26.8291 71.2734 26.5596 71.3203 26.1904 71.3203C25.8213 71.3203 25.5576 71.2705 25.3994 71.1709C25.2471 71.0654 25.0625 70.8105 24.8457 70.4062C24.6289 69.9961 24.2363 69.0146 23.668 67.4619C23.1055 65.9033 22.6719 64.8633 22.3672 64.3418C22.0625 63.8145 21.9102 63.4102 21.9102 63.1289C21.9102 62.8418 21.9922 62.6543 22.1562 62.5664C22.3262 62.4785 22.6191 62.4346 23.0352 62.4346H23.2285C23.9023 62.4346 24.3652 62.6279 24.6172 63.0146C24.7285 63.1787 24.8223 63.5186 24.8984 64.0342C24.9746 64.5439 25.1123 65.1387 25.3115 65.8184C25.8682 67.752 26.2256 68.7188 26.3838 68.7188C26.5068 68.7188 26.873 67.7578 27.4824 65.8359C27.6699 65.25 27.8311 64.6172 27.9658 63.9375C28.1006 63.252 28.1738 62.9004 28.1855 62.8828C28.332 62.5898 28.7861 62.4434 29.5479 62.4434C29.8936 62.4434 30.125 62.4785 30.2422 62.5488C30.3594 62.6191 30.418 62.792 30.418 63.0674V63.2256ZM37.2822 65.458V65.4053L37.2734 65.3525V65.2559C37.2617 65.1855 37.2559 65.1357 37.2559 65.1064C37.2559 64.7666 37.1035 64.4648 36.7988 64.2012C36.4941 63.9316 36.1631 63.7969 35.8057 63.7969H35.542C35.0498 63.7969 34.6367 63.9873 34.3027 64.3682C33.9688 64.749 33.8018 65.1738 33.8018 65.6426V65.7832C33.8018 65.959 33.916 66.0469 34.1445 66.0469L34.3643 66.0732H34.918L34.9619 66.0645L36.5703 65.9766L36.7549 65.959C37.1064 65.959 37.2822 65.792 37.2822 65.458ZM38.8291 67.0576C38.3428 67.251 37.3936 67.3477 35.9814 67.3477C34.5752 67.3477 33.8721 67.5586 33.8721 67.9805C33.8721 68.5371 34.0859 68.9736 34.5137 69.29C34.9414 69.6064 35.5508 69.7646 36.3418 69.7646C36.6465 69.7646 37.0332 69.6885 37.502 69.5361C37.9707 69.3838 38.3369 69.3076 38.6006 69.3076C38.9229 69.3076 39.084 69.5654 39.084 70.0811C39.084 70.4092 38.7295 70.7227 38.0205 71.0215C37.3174 71.3203 36.6348 71.4697 35.9727 71.4697H35.7705C35.0498 71.4697 34.4141 71.3613 33.8633 71.1445C33.3184 70.9219 32.8848 70.6436 32.5625 70.3096C32.2402 69.9756 31.9736 69.5303 31.7627 68.9736C31.5576 68.417 31.4551 67.7988 31.4551 67.1191V66.9082C31.4551 65.5254 31.8037 64.4355 32.501 63.6387C32.8701 63.2168 33.3301 62.8945 33.8809 62.6719C34.4316 62.4434 35.0117 62.3291 35.6211 62.3291H36.0342C36.4502 62.3291 36.8838 62.4111 37.335 62.5752C38.208 62.8916 38.8145 63.5127 39.1543 64.4385C39.3242 64.9014 39.4092 65.3379 39.4092 65.748V65.9414C39.4092 66.5332 39.2158 66.9053 38.8291 67.0576ZM42.3887 70.2041C42.0664 69.6592 41.9053 68.6602 41.9053 67.207C41.9053 65.7539 41.8555 64.8398 41.7559 64.4648C41.7031 64.2598 41.5332 64.0605 41.2461 63.8672C40.959 63.6738 40.8154 63.4277 40.8154 63.1289C40.8154 62.8301 40.9062 62.6191 41.0879 62.4961C41.1289 62.4668 41.2461 62.4023 41.4395 62.3027C41.6328 62.1973 41.75 62.1152 41.791 62.0566C41.8379 61.9922 41.9258 61.7109 42.0547 61.2129C42.1895 60.709 42.3242 60.3604 42.459 60.167C42.5996 59.9678 42.7988 59.8682 43.0566 59.8682H43.2061C43.54 59.8682 43.7861 59.9736 43.9443 60.1846C44.0264 60.2959 44.1113 60.5713 44.1992 61.0107C44.2871 61.4502 44.4072 61.7578 44.5596 61.9336C44.7119 62.1094 45.0283 62.2617 45.5088 62.3906C45.9951 62.5137 46.2383 62.7158 46.2383 62.9971C46.2383 63.2783 46.165 63.4746 46.0186 63.5859C45.8721 63.6973 45.585 63.7998 45.1572 63.8936C44.7295 63.9873 44.4512 64.1338 44.3223 64.333C44.1934 64.5264 44.1289 65.0684 44.1289 65.959L44.1201 66.1436C44.1143 66.2666 44.1113 66.4102 44.1113 66.5742V67.0928C44.1113 68.1768 44.2197 68.874 44.4365 69.1846C44.5713 69.3779 44.8613 69.5098 45.3066 69.5801C45.7578 69.6445 45.998 69.6826 46.0273 69.6943C46.2559 69.8115 46.3701 70.002 46.3701 70.2656V70.4062C46.3701 70.6465 46.209 70.8516 45.8867 71.0215C45.5703 71.1855 45.1777 71.2676 44.709 71.2676H44.3486C43.4639 71.2676 42.8105 70.9131 42.3887 70.2041ZM59.2461 67.1455V66.6709C59.2461 65.7979 59.1055 65.1416 58.8242 64.7021C58.4609 64.1396 57.9893 63.8584 57.4092 63.8584H57.2422C56.6387 63.8584 56.1875 64.084 55.8887 64.5352C55.6602 64.8809 55.5459 65.5488 55.5459 66.5391V67.4883L55.5547 67.5762L55.5811 68.165C55.5869 68.2236 55.5898 68.2793 55.5898 68.332C55.5898 68.8066 55.7217 69.1875 55.9854 69.4746C56.2549 69.7617 56.6094 69.9053 57.0488 69.9053H57.2949C57.8809 69.9053 58.3525 69.6562 58.71 69.1582C59.0674 68.6543 59.2461 67.9834 59.2461 67.1455ZM54.1572 74.9238C53.4014 74.9238 53.0234 74.6689 53.0234 74.1592V73.9746C53.0234 73.8457 53.0762 73.5791 53.1816 73.1748C53.2871 72.7705 53.3516 72.252 53.375 71.6191C53.4043 70.9863 53.4189 70.1367 53.4189 69.0703V66.2051L53.4102 65.5723C53.4102 64.8281 53.3457 64.2773 53.2168 63.9199C53.0879 63.5566 53.0234 63.2871 53.0234 63.1113C53.0234 62.7656 53.4775 62.5928 54.3857 62.5928C54.4033 62.5928 54.418 62.5928 54.4297 62.5928C54.5586 62.5928 54.7461 62.6367 54.9922 62.7246C55.2383 62.8066 55.4844 62.8477 55.7305 62.8477C55.9824 62.8477 56.3311 62.7686 56.7764 62.6104C57.2217 62.4521 57.6494 62.373 58.0596 62.373H58.2705C59.208 62.373 59.9844 62.7451 60.5996 63.4893C61.209 64.2334 61.5137 65.2295 61.5137 66.4775V66.7061C61.5137 67.3037 61.4141 67.9189 61.2148 68.5518C61.0215 69.1846 60.7168 69.7148 60.3008 70.1426C59.8906 70.5645 59.4482 70.8574 58.9736 71.0215C58.5049 71.1797 57.957 71.2588 57.3301 71.2588C56.7031 71.2588 56.2549 71.3496 55.9854 71.5312C55.8564 71.6191 55.792 71.7686 55.792 71.9795C55.792 72.1904 55.8301 72.4775 55.9062 72.8408C55.9883 73.21 56.0293 73.5352 56.0293 73.8164C56.0293 74.0977 55.8799 74.3525 55.5811 74.5811C55.2881 74.8096 54.9482 74.9238 54.5615 74.9238H54.1572ZM68.7646 65.458V65.4053L68.7559 65.3525V65.2559C68.7441 65.1855 68.7383 65.1357 68.7383 65.1064C68.7383 64.7666 68.5859 64.4648 68.2812 64.2012C67.9766 63.9316 67.6455 63.7969 67.2881 63.7969H67.0244C66.5322 63.7969 66.1191 63.9873 65.7852 64.3682C65.4512 64.749 65.2842 65.1738 65.2842 65.6426V65.7832C65.2842 65.959 65.3984 66.0469 65.627 66.0469L65.8467 66.0732H66.4004L66.4443 66.0645L68.0527 65.9766L68.2373 65.959C68.5889 65.959 68.7646 65.792 68.7646 65.458ZM70.3115 67.0576C69.8252 67.251 68.876 67.3477 67.4639 67.3477C66.0576 67.3477 65.3545 67.5586 65.3545 67.9805C65.3545 68.5371 65.5684 68.9736 65.9961 69.29C66.4238 69.6064 67.0332 69.7646 67.8242 69.7646C68.1289 69.7646 68.5156 69.6885 68.9844 69.5361C69.4531 69.3838 69.8193 69.3076 70.083 69.3076C70.4053 69.3076 70.5664 69.5654 70.5664 70.0811C70.5664 70.4092 70.2119 70.7227 69.5029 71.0215C68.7998 71.3203 68.1172 71.4697 67.4551 71.4697H67.2529C66.5322 71.4697 65.8965 71.3613 65.3457 71.1445C64.8008 70.9219 64.3672 70.6436 64.0449 70.3096C63.7227 69.9756 63.4561 69.5303 63.2451 68.9736C63.04 68.417 62.9375 67.7988 62.9375 67.1191V66.9082C62.9375 65.5254 63.2861 64.4355 63.9834 63.6387C64.3525 63.2168 64.8125 62.8945 65.3633 62.6719C65.9141 62.4434 66.4941 62.3291 67.1035 62.3291H67.5166C67.9326 62.3291 68.3662 62.4111 68.8174 62.5752C69.6904 62.8916 70.2969 63.5127 70.6367 64.4385C70.8066 64.9014 70.8916 65.3379 70.8916 65.748V65.9414C70.8916 66.5332 70.6982 66.9053 70.3115 67.0576ZM73.8711 70.2041C73.5488 69.6592 73.3877 68.6602 73.3877 67.207C73.3877 65.7539 73.3379 64.8398 73.2383 64.4648C73.1855 64.2598 73.0156 64.0605 72.7285 63.8672C72.4414 63.6738 72.2979 63.4277 72.2979 63.1289C72.2979 62.8301 72.3887 62.6191 72.5703 62.4961C72.6113 62.4668 72.7285 62.4023 72.9219 62.3027C73.1152 62.1973 73.2324 62.1152 73.2734 62.0566C73.3203 61.9922 73.4082 61.7109 73.5371 61.2129C73.6719 60.709 73.8066 60.3604 73.9414 60.167C74.082 59.9678 74.2812 59.8682 74.5391 59.8682H74.6885C75.0225 59.8682 75.2686 59.9736 75.4268 60.1846C75.5088 60.2959 75.5938 60.5713 75.6816 61.0107C75.7695 61.4502 75.8896 61.7578 76.042 61.9336C76.1943 62.1094 76.5107 62.2617 76.9912 62.3906C77.4775 62.5137 77.7207 62.7158 77.7207 62.9971C77.7207 63.2783 77.6475 63.4746 77.501 63.5859C77.3545 63.6973 77.0674 63.7998 76.6396 63.8936C76.2119 63.9873 75.9336 64.1338 75.8047 64.333C75.6758 64.5264 75.6113 65.0684 75.6113 65.959L75.6025 66.1436C75.5967 66.2666 75.5938 66.4102 75.5938 66.5742V67.0928C75.5938 68.1768 75.7021 68.874 75.9189 69.1846C76.0537 69.3779 76.3438 69.5098 76.7891 69.5801C77.2402 69.6445 77.4805 69.6826 77.5098 69.6943C77.7383 69.8115 77.8525 70.002 77.8525 70.2656V70.4062C77.8525 70.6465 77.6914 70.8516 77.3691 71.0215C77.0527 71.1855 76.6602 71.2676 76.1914 71.2676H75.8311C74.9463 71.2676 74.293 70.9131 73.8711 70.2041Z" fill="#B89068"/>
<path fill-rule="evenodd" clip-rule="evenodd" d="M43.3494 24.0159C43.0695 23.9768 42.796 24.0159 42.5161 24.068C40.2895 24.4976 39.0005 27.7463 39.7036 31.3596C40.4067 34.9729 42.7895 37.5706 45.0161 37.1409C47.2426 36.7112 48.4796 33.4104 47.7765 29.7971C47.1645 26.6331 45.309 24.2698 43.3494 24.0159ZM55.9536 24.0159C53.9939 24.2698 52.1385 26.6331 51.5265 29.7971C50.8234 33.4104 52.0604 36.7112 54.2869 37.1409C56.5135 37.5706 58.8963 34.9729 59.5994 31.3596C60.3025 27.7463 59.0135 24.4976 56.7869 24.068C56.507 24.0159 56.2335 23.9768 55.9536 24.0159ZM35.8494 35.5263C35.2635 35.5588 34.6906 35.7151 34.2348 36.0471C32.4119 37.3883 32.6398 40.7411 34.7036 43.5471C36.7674 46.3531 39.9119 47.5445 41.7348 46.2034C43.5577 44.8622 43.382 41.5094 41.3182 38.7034C39.7687 36.6005 37.6007 35.4286 35.8494 35.5263ZM63.4015 35.5263C61.6307 35.4091 59.4822 36.6005 57.9327 38.7034C55.8689 41.5094 56.0838 45.0315 57.8807 46.4638C59.4171 47.6877 62.5877 46.4573 64.6515 43.6513C66.7153 40.8453 66.8715 37.4599 65.0161 36.0992C64.5538 35.7607 63.9939 35.5653 63.4015 35.5263ZM49.6515 40.5784C47.1189 40.5784 45.0682 42.8245 45.0682 45.5784C45.0682 48.0719 40.4848 49.6018 40.4848 52.6096C40.4848 55.1682 42.6919 57.245 45.3807 57.245C46.2531 57.245 47.0213 57.0041 47.7244 56.62C48.5122 56.1903 50.7322 56.1903 51.5265 56.62C52.2361 57.0041 53.0434 57.245 53.9223 57.245C56.6307 57.245 58.8182 55.1682 58.8182 52.6096C58.8182 49.8362 54.2348 47.6487 54.2348 45.5784C54.2348 42.8245 52.184 40.5784 49.6515 40.5784Z" fill="#B89068"/>
</svg>
